<svg xmlns="http://www.w3.org/2000/svg" xmlns:xlink="http://www.w3.org/1999/xlink" width="1080" zoomAndPan="magnify"
    viewBox="0 0 810 809.999993" height="1080" preserveAspectRatio="xMidYMid meet" version="1.0">
    <defs>
        <clipPath id="2021c340dc">
            <path d="M 165.242188 31 L 504.242188 31 L 504.242188 253 L 165.242188 253 Z M 165.242188 31 "
                clip-rule="nonzero" />
        </clipPath>
        <clipPath id="740e74a262">
            <path
                d="M 342.097656 249.070312 L 666.097656 249.070312 L 666.097656 471.820312 L 342.097656 471.820312 Z M 342.097656 249.070312 "
                clip-rule="nonzero" />
        </clipPath>
        <clipPath id="8b905459e0">
            <path d="M 240.746094 157 L 467.996094 157 L 467.996094 480 L 240.746094 480 Z M 240.746094 157 "
                clip-rule="nonzero" />
        </clipPath>
        <clipPath id="e4c02a690e">
            <path
                d="M 153.570312 185.292969 L 300.570312 185.292969 L 300.570312 527.292969 L 153.570312 527.292969 Z M 153.570312 185.292969 "
                clip-rule="nonzero" />
        </clipPath>
        <clipPath id="7541d30038">
            <path
                d="M 239.046875 366.953125 L 696 366.953125 L 696 702.683594 L 239.046875 702.683594 Z M 239.046875 366.953125 "
                clip-rule="nonzero" />
        </clipPath>
    </defs>
    <g clip-path="url(#2021c340dc)">
        <path fill="#e12323"
            d="M 478.484375 31.417969 L 474.0625 36.648438 L 469.644531 41.871094 L 464.425781 39.570312 C 458.082031 36.765625 457.933594 36.886719 458.703125 44.304688 L 459.316406 50.230469 L 457.964844 52.742188 L 456.617188 55.261719 L 451.820312 57.3125 C 449.179688 58.441406 442.824219 60.453125 437.6875 61.78125 C 427.242188 64.484375 424.90625 65.738281 416.277344 73.296875 C 409.007812 79.660156 407.417969 80.035156 395.46875 78.152344 C 390.339844 77.34375 383.347656 76.757812 379.929688 76.847656 C 376.511719 76.941406 372.0625 76.59375 370.042969 76.078125 L 366.367188 75.136719 L 366.367188 83.152344 L 363.390625 85.492188 C 359.832031 88.285156 357 88.414062 350.40625 86.078125 L 345.460938 84.324219 L 341.933594 84.972656 L 338.410156 85.621094 L 328.042969 96.855469 L 321.316406 96.855469 L 320.957031 99.960938 L 320.597656 103.0625 L 317.210938 102.753906 L 313.820312 102.445312 L 309.609375 110.417969 L 305.402344 118.390625 L 307.25 123 L 309.09375 127.609375 L 307.785156 129.707031 C 307.0625 130.859375 306.472656 132.5 306.472656 133.355469 C 306.472656 134.210938 305.46875 136.1875 304.238281 137.746094 L 302.007812 140.578125 L 303.496094 146.300781 L 304.980469 152.027344 L 304.179688 153.324219 L 303.371094 154.625 L 295.53125 155.484375 C 291.21875 155.957031 286.582031 156.933594 285.230469 157.65625 L 282.769531 158.972656 L 282.113281 162.042969 C 280.863281 167.886719 279.386719 170.183594 274.902344 173.285156 L 270.394531 176.398438 L 270.371094 179.21875 C 270.335938 182.914062 271.253906 184.15625 275.679688 186.421875 L 279.351562 188.300781 L 279.351562 198.828125 L 274.839844 206.40625 C 267.253906 219.152344 266.074219 225.15625 269.746094 232.25 L 271.589844 235.804688 L 275.75 237.542969 L 279.910156 239.277344 L 295.097656 238.191406 L 297.914062 236.347656 L 300.730469 234.507812 L 302.011719 229.710938 C 302.714844 227.070312 303.679688 224.148438 304.152344 223.21875 L 305.007812 221.527344 L 309.230469 220.960938 L 313.457031 220.398438 L 316.464844 215.992188 L 319.46875 211.582031 L 325.683594 209.289062 L 331.902344 206.992188 L 339.246094 206.96875 L 346.59375 206.949219 L 349.757812 209.042969 C 355.925781 213.132812 357.859375 220.683594 355.761719 232.527344 L 354.8125 237.886719 L 361.769531 237.886719 L 363.070312 240.308594 L 364.367188 242.734375 L 363.695312 247.640625 L 363.023438 252.550781 L 364.5 252.550781 C 366.734375 252.550781 370.058594 248.421875 375.832031 238.472656 L 381.058594 229.46875 L 381.121094 225.496094 C 381.253906 216.535156 384.496094 202.90625 386.492188 202.914062 C 389.605469 202.921875 396.882812 212.214844 396.882812 216.175781 C 396.882812 217.351562 398.113281 219.46875 399.621094 220.882812 L 402.363281 223.453125 L 403.59375 222.695312 C 404.269531 222.277344 405.871094 219.886719 407.152344 217.378906 L 409.480469 212.824219 L 407.136719 210.332031 C 404.292969 207.308594 404.160156 204.832031 406.707031 202.289062 L 408.617188 200.378906 L 406.488281 198.824219 C 405.316406 197.96875 403.175781 197.269531 401.726562 197.269531 L 399.09375 197.269531 L 396.59375 191.792969 L 397.277344 189.070312 C 397.65625 187.570312 399.449219 184.648438 401.265625 182.574219 L 404.5625 178.796875 L 405.230469 174.777344 C 405.597656 172.566406 405.898438 169.363281 405.910156 167.664062 C 405.917969 165.964844 407.246094 161.265625 408.867188 157.222656 L 411.816406 149.871094 L 417.15625 145.078125 C 424.113281 138.832031 424.851562 137.273438 425.800781 126.824219 L 426.597656 118.042969 L 430.667969 113.347656 C 432.90625 110.761719 435.699219 106.375 436.871094 103.597656 C 438.042969 100.820312 440.265625 95.832031 441.8125 92.511719 L 444.621094 86.476562 L 452.429688 81.4375 L 460.234375 76.394531 L 467.328125 63.847656 L 472.457031 60.597656 C 477.722656 57.265625 493.886719 50.597656 496.703125 50.597656 C 497.574219 50.597656 499.625 49.546875 501.261719 48.257812 L 504.242188 45.921875 L 504.242188 40.609375 L 500.148438 37.242188 C 495.835938 33.691406 488.902344 31.417969 482.386719 31.417969 Z M 224.214844 32.546875 L 223.613281 34.125 L 223.003906 35.703125 L 226.355469 38.679688 C 230.378906 42.261719 230.1875 42.660156 222.375 47.0625 C 214.6875 51.394531 211.445312 62.882812 215.085938 72.882812 C 216.382812 76.449219 218.386719 76.046875 222.027344 71.492188 L 225.164062 67.566406 L 231.28125 65.792969 L 237.394531 64.019531 L 239.726562 59.210938 C 242.519531 53.445312 242.585938 49.472656 240 42.734375 L 238.058594 37.6875 L 234.242188 35.117188 C 232.140625 33.703125 229.027344 32.546875 227.320312 32.546875 Z M 180.230469 46.085938 L 177.335938 48.765625 L 174.4375 51.445312 L 171.519531 60.671875 C 169.914062 65.742188 168.582031 71.519531 168.5625 73.503906 C 168.539062 75.488281 167.859375 78.304688 167.050781 79.757812 L 165.578125 82.40625 L 166.710938 88.128906 L 167.84375 93.847656 L 166.527344 100.214844 C 165.074219 107.238281 164.824219 113.015625 165.921875 114.117188 C 167.207031 115.394531 170.835938 112.644531 173.84375 108.105469 L 176.792969 103.65625 L 177.695312 94.699219 C 178.195312 89.773438 179.222656 84.585938 179.980469 83.171875 C 182.214844 79 184.394531 69.601562 184.410156 64.0625 L 184.421875 58.914062 L 188.378906 57.03125 C 193.160156 54.753906 193.328125 53.097656 189.164062 49.117188 L 185.992188 46.085938 Z M 180.230469 46.085938 "
            fill-opacity="1" fill-rule="nonzero" />
    </g>
    <g clip-path="url(#740e74a262)">
        <path fill="#fff"
            d="M 520.964844 249.6875 C 519.257812 249.570312 517.777344 250.046875 516.546875 251.117188 L 514.789062 252.648438 L 504.769531 253.324219 C 499.261719 253.691406 488.921875 254.003906 481.800781 254.019531 L 468.847656 254.042969 L 466.851562 262.523438 C 464.855469 271.015625 461.699219 277.109375 458.566406 278.542969 C 457.648438 278.964844 455.894531 279.816406 454.671875 280.4375 L 452.445312 281.5625 L 452.117188 290.15625 L 451.792969 298.746094 L 455.179688 302.609375 C 457.042969 304.730469 458.566406 307.414062 458.566406 308.570312 L 458.566406 310.671875 L 452.722656 315.882812 C 445.667969 322.167969 441.199219 324.253906 435.289062 324.023438 L 430.839844 323.847656 L 429.117188 325.277344 L 427.394531 326.710938 L 427.394531 336.066406 L 424.007812 343.0625 L 420.617188 350.058594 L 420.089844 359.09375 C 419.800781 364.0625 419.074219 368.617188 418.476562 369.214844 L 417.390625 370.300781 L 414.085938 367.863281 L 410.785156 365.417969 L 405.101562 365.417969 C 401.972656 365.417969 398.445312 364.898438 397.261719 364.265625 L 395.109375 363.113281 L 395.109375 357.621094 L 393.574219 357.621094 C 391.082031 357.621094 389.71875 360.128906 389.339844 365.394531 L 388.984375 370.339844 L 384.761719 371.214844 C 374.0625 373.421875 354.304688 392.980469 351.496094 404.148438 L 350.265625 409.027344 L 345.96875 411.871094 C 340.734375 415.335938 340.671875 414.742188 346.605469 418.21875 L 351.539062 421.113281 L 352.347656 423.613281 C 352.792969 424.988281 353.199219 433.71875 353.257812 443.007812 C 353.371094 462.539062 352.902344 461.570312 362.359375 461.722656 L 369.664062 461.839844 L 373.199219 465.90625 C 375.144531 468.140625 377.738281 470.191406 378.964844 470.46875 C 380.191406 470.742188 383.789062 471.023438 386.96875 471.09375 L 392.746094 471.222656 L 392.324219 443.464844 L 396.300781 439.480469 L 406.722656 439.375 L 417.144531 439.265625 L 420.878906 436.949219 C 422.929688 435.679688 428.621094 432.667969 433.519531 430.265625 L 442.425781 425.890625 L 453.558594 424.089844 C 471.765625 421.148438 502.488281 418.464844 520.652344 418.230469 L 537.644531 418.011719 L 539.183594 416.734375 C 540.027344 416.035156 540.96875 413.847656 541.277344 411.878906 C 542.835938 401.835938 546.582031 396.488281 553.496094 394.425781 C 556.089844 393.648438 561.46875 391.34375 565.449219 389.300781 C 569.425781 387.257812 574.1875 384.972656 576.023438 384.230469 L 579.363281 382.878906 L 596.066406 382.136719 L 612.765625 381.390625 L 616.660156 379.449219 C 618.804688 378.382812 622.410156 376.550781 624.675781 375.378906 C 626.9375 374.207031 630.71875 372.816406 633.078125 372.289062 L 637.363281 371.324219 L 642.875 372.75 C 645.910156 373.535156 649.46875 373.917969 650.789062 373.601562 L 653.191406 373.027344 L 653.835938 370.613281 C 654.191406 369.285156 654.492188 366.34375 654.5 364.070312 L 654.515625 359.9375 L 651.453125 357.101562 L 648.390625 354.257812 L 648.390625 339.511719 C 648.390625 331.402344 648.777344 323.398438 649.246094 321.722656 L 650.09375 318.679688 L 653.480469 316.933594 C 655.339844 315.96875 657.839844 314.203125 659.03125 313.011719 L 661.195312 310.84375 L 661.195312 301.121094 L 663.648438 298.007812 L 666.09375 294.890625 L 666.078125 291.453125 C 666.070312 289.5625 665.695312 286.578125 665.246094 284.820312 L 664.429688 281.628906 L 658.082031 282.234375 C 654.589844 282.566406 646.222656 283.667969 639.488281 284.679688 L 627.238281 286.523438 L 610.976562 286.425781 L 594.707031 286.324219 L 590.691406 288.003906 C 581.699219 291.765625 578.316406 289.945312 571.011719 277.417969 C 565.382812 267.765625 556.902344 258.339844 551.566406 255.808594 L 547.855469 254.046875 L 539.117188 254.039062 L 530.378906 254.035156 L 526.734375 251.8125 C 524.601562 250.511719 522.671875 249.804688 520.96875 249.6875 Z M 520.964844 249.6875 "
            fill-opacity="1" fill-rule="nonzero" />
    </g>
    <g clip-path="url(#8b905459e0)">
        <path fill="#fff"
            d="M 423.378906 157.644531 C 422.441406 157.503906 421.078125 158.210938 418.394531 159.632812 L 413.410156 162.269531 L 411.4375 170.667969 L 409.464844 179.0625 L 406.324219 182.347656 L 403.179688 185.625 L 403.582031 187.71875 L 403.988281 189.8125 L 408.210938 190.8125 C 410.53125 191.359375 413.308594 192.78125 414.378906 193.964844 L 416.328125 196.121094 L 413.765625 199.71875 L 411.207031 203.316406 L 413.644531 205.914062 C 417.410156 209.925781 415.34375 216.421875 408.121094 223.285156 L 404.5625 226.671875 L 401.382812 223.90625 C 399.632812 222.386719 397.296875 220.160156 396.183594 218.953125 L 394.167969 216.761719 L 394.167969 210.449219 L 391.960938 208.457031 L 389.761719 206.460938 L 389.105469 208.566406 C 388.746094 209.722656 387.988281 214.882812 387.417969 220.035156 L 386.382812 229.398438 L 381.425781 237.921875 C 378.699219 242.613281 374.632812 248.398438 372.394531 250.78125 L 368.320312 255.109375 L 365.234375 255.109375 C 363.539062 255.109375 361.582031 254.421875 360.882812 253.582031 L 359.617188 252.058594 L 360.324219 246.078125 L 361.035156 240.105469 L 359.773438 240.105469 C 359.082031 240.105469 357.15625 240.722656 355.492188 241.480469 L 352.472656 242.859375 L 351.449219 241.203125 C 350.886719 240.289062 350.636719 238.5 350.890625 237.226562 C 351.144531 235.953125 351.992188 231.429688 352.769531 227.175781 L 354.191406 219.441406 L 352.117188 214.832031 L 350.039062 210.226562 L 345.546875 208.429688 C 339.941406 206.1875 337.542969 206.171875 333.410156 208.359375 C 331.613281 209.308594 328.195312 210.839844 325.8125 211.765625 L 321.476562 213.445312 L 320.464844 216.097656 C 318.929688 220.109375 315.597656 222.566406 311.109375 222.988281 L 307.074219 223.367188 L 306.730469 226.253906 C 306.117188 231.445312 304.109375 235.113281 300.367188 237.878906 L 296.691406 240.597656 L 285.734375 240.640625 L 274.773438 240.679688 L 271.015625 237.996094 L 267.253906 235.3125 L 264.824219 229.96875 L 262.386719 224.621094 L 263.03125 218.386719 L 263.671875 212.148438 L 266.492188 207.890625 C 270.746094 201.460938 275.351562 191.960938 275.34375 189.644531 L 275.332031 187.585938 L 270.824219 185.011719 L 266.3125 182.433594 L 265.523438 178.839844 L 264.734375 175.238281 L 257.171875 182.574219 L 252.320312 183.226562 L 247.464844 183.875 L 246.871094 185.433594 C 246.542969 186.289062 247.363281 188.84375 248.699219 191.105469 L 251.125 195.21875 L 251.125 199.539062 C 251.125 201.914062 251.6875 204.421875 252.371094 205.105469 C 253.054688 205.789062 253.441406 207.839844 253.234375 209.664062 L 252.855469 212.980469 L 248.242188 212.980469 C 242.316406 212.980469 240.746094 214.066406 240.746094 218.175781 L 240.746094 221.503906 L 243.339844 224.519531 C 244.765625 226.175781 249.570312 230.242188 254.011719 233.550781 L 262.085938 239.566406 L 263.789062 244.480469 L 265.496094 249.398438 L 262.917969 253.375 L 258.15625 253.0625 L 253.394531 252.753906 L 251.207031 258.503906 L 248.28125 259.238281 L 245.359375 259.976562 L 245.359375 261.515625 C 245.359375 262.363281 246.394531 264.808594 247.65625 266.949219 C 248.921875 269.09375 250.480469 273.632812 251.125 277.035156 C 251.769531 280.441406 253.15625 284.167969 254.199219 285.324219 L 256.097656 287.425781 L 259.089844 287.429688 C 260.738281 287.433594 264.527344 286.558594 267.511719 285.488281 L 272.9375 283.542969 L 275.710938 284.808594 L 278.484375 286.070312 L 279.222656 289.777344 C 279.632812 291.816406 279.964844 294.855469 279.964844 296.535156 L 279.964844 299.585938 L 283.011719 304.070312 L 286.054688 308.550781 L 287.171875 318.433594 L 278.234375 322.636719 L 277.53125 327.582031 L 281.339844 331.234375 C 283.4375 333.242188 287.523438 336.113281 290.417969 337.613281 C 298.953125 342.035156 307.476562 352.910156 302.746094 353.347656 C 301.953125 353.421875 300.527344 353.550781 299.574219 353.636719 L 297.84375 353.792969 L 297.476562 356.976562 C 297.277344 358.726562 298.28125 363.863281 299.707031 368.386719 L 302.304688 376.617188 L 299.144531 381.941406 C 293.5625 391.347656 290.109375 399.78125 288.832031 407.121094 L 287.589844 414.285156 L 291.886719 419.035156 L 292.257812 425.210938 C 292.464844 428.609375 293.410156 432.886719 294.363281 434.71875 C 298.0625 441.8125 293.699219 451.914062 289.71875 445.472656 L 288.957031 444.238281 L 287.058594 445.0625 C 286.011719 445.515625 283.082031 446.199219 280.550781 446.582031 L 275.949219 447.28125 L 274.136719 451.117188 C 272.078125 455.484375 270.082031 457.046875 266.535156 457.074219 C 263.449219 457.097656 262.382812 459.609375 264.265625 462.441406 C 265.050781 463.625 266.320312 466.765625 267.085938 469.425781 L 268.476562 474.253906 L 274.511719 476.050781 C 277.828125 477.039062 282.273438 478.984375 282.273438 478.984375 C 284.605469 480.515625 288.234375 479.363281 290.34375 476.417969 C 291.296875 475.085938 298.082031 467.726562 305.425781 460.0625 C 321.753906 443.015625 329.140625 433.648438 335.367188 422.097656 L 340.136719 413.25 L 343.503906 411.261719 L 346.867188 409.273438 L 346.867188 407.265625 C 346.867188 403.347656 350.75 396.519531 357.828125 387.988281 C 359.097656 386.460938 363.980469 381.902344 368.683594 377.859375 L 377.238281 370.507812 L 381.660156 369.179688 L 386.089844 367.855469 L 386.089844 360.140625 L 388.441406 357.785156 C 389.734375 356.488281 392.136719 354.917969 393.773438 354.296875 L 396.753906 353.164062 L 398.273438 354.425781 C 399.109375 355.121094 399.957031 357.082031 400.152344 358.78125 L 400.507812 361.871094 L 408.007812 362.449219 C 412.128906 362.765625 416.082031 363.402344 416.789062 363.863281 L 418.078125 364.699219 L 418.671875 357.289062 L 419.265625 349.875 L 422.863281 342.183594 L 426.460938 334.488281 L 426.5 329.710938 L 426.539062 324.9375 L 428.941406 322.050781 L 431.339844 319.164062 L 442.910156 319.664062 L 445.359375 318.359375 C 456.199219 312.574219 458.746094 308.070312 454.144531 302.828125 L 450.679688 298.875 L 451.429688 290.554688 C 452.414062 279.625 452.53125 279.390625 459.90625 273.402344 L 466.242188 268.257812 L 467.050781 263.699219 C 467.496094 261.195312 467.890625 256.394531 467.925781 253.027344 L 467.992188 246.914062 L 466.339844 243.710938 C 464.066406 239.3125 461.671875 237.507812 455.441406 235.484375 L 450.113281 233.753906 L 448.539062 228.78125 L 446.96875 223.804688 L 448.761719 218.972656 C 449.746094 216.308594 451.160156 210.9375 451.902344 207.035156 L 453.25 199.9375 L 451.863281 195.722656 L 450.472656 191.515625 L 446.050781 188.585938 L 441.632812 185.660156 L 439.816406 181.832031 C 438.816406 179.726562 437.992188 176.261719 437.980469 174.136719 C 437.972656 172.011719 437.3125 168.976562 436.511719 167.386719 L 435.054688 164.503906 L 427.101562 163.347656 L 425.800781 160.730469 C 424.828125 158.765625 424.316406 157.78125 423.378906 157.644531 Z M 423.378906 157.644531 "
            fill-opacity="1" fill-rule="nonzero" />
    </g>
    <g clip-path="url(#e4c02a690e)">
        <path fill="#fff"
            d="M 229.84375 185.316406 L 227.953125 186.042969 C 225.289062 187.0625 225.394531 187.425781 231.828125 199.628906 L 237.597656 210.570312 L 236.96875 212.503906 C 236.625 213.570312 234.777344 215.328125 232.867188 216.410156 L 229.390625 218.378906 L 227.824219 222.109375 C 226.964844 224.160156 224.925781 227.085938 223.296875 228.609375 L 220.335938 231.378906 L 216.917969 228.109375 L 213.503906 224.84375 L 213.503906 232.898438 L 209.507812 237.003906 C 204.589844 242.058594 204.589844 242.1875 209.507812 248.0625 C 211.703125 250.6875 213.503906 253.285156 213.503906 253.832031 C 213.503906 254.378906 216.285156 256.878906 219.6875 259.386719 L 225.871094 263.949219 L 228.25 270.292969 C 230.984375 277.597656 231.253906 281.453125 229.140625 283.203125 L 227.65625 284.4375 L 225.304688 283.820312 L 222.949219 283.207031 L 222.234375 285.070312 L 221.515625 286.933594 L 224.644531 289.988281 C 226.367188 291.664062 228.929688 294.558594 230.34375 296.414062 L 232.910156 299.789062 L 232.910156 303.300781 C 232.910156 305.234375 232.109375 307.953125 231.132812 309.347656 L 229.355469 311.878906 L 224.855469 311.878906 C 219.769531 311.878906 219.277344 312.839844 222.753906 315.976562 C 227.894531 320.621094 230.628906 332.804688 230.628906 351.09375 L 230.628906 359.027344 L 228.144531 361.664062 C 226.78125 363.117188 224.914062 364.304688 224 364.304688 L 222.335938 364.304688 L 223.019531 368.5 C 223.820312 373.414062 226.050781 376 229.714844 376.261719 L 232.339844 376.449219 L 232.695312 379.421875 L 233.050781 382.398438 L 239.191406 383.109375 L 239.550781 385.621094 L 239.90625 388.136719 L 234.410156 392.105469 C 231.390625 394.289062 225.378906 399.992188 221.058594 404.777344 L 213.203125 413.476562 L 211.601562 418.929688 L 210.003906 424.378906 L 207.097656 427.105469 L 204.1875 429.835938 L 194.292969 430.054688 L 184.390625 430.277344 L 179.457031 435.753906 C 176.742188 438.765625 173.53125 443.132812 172.320312 445.457031 L 170.125 449.679688 L 171.726562 455.710938 C 172.605469 459.03125 173.875 463.144531 174.542969 464.855469 L 175.753906 467.96875 L 173.582031 469.128906 C 172.386719 469.769531 167.554688 470.292969 162.84375 470.292969 L 154.269531 470.292969 L 153.625 471.335938 C 152.820312 472.636719 160.488281 479.285156 169.550781 485.144531 C 175.691406 489.117188 181.195312 493.097656 195.402344 503.835938 L 199.828125 507.183594 L 206.953125 507.667969 L 214.074219 508.148438 L 217.324219 511.15625 C 219.109375 512.8125 221.636719 516.476562 222.9375 519.296875 C 224.238281 522.117188 225.792969 525.066406 226.394531 525.847656 L 227.480469 527.273438 L 238.375 527.273438 L 238.988281 525.679688 C 239.324219 524.804688 238.0625 520.847656 236.183594 516.882812 L 232.769531 509.675781 L 238.15625 505.011719 L 243.542969 500.34375 L 240.25 497.296875 L 236.960938 494.25 L 238.644531 492.734375 C 239.574219 491.898438 243.414062 490.292969 247.179688 489.164062 C 250.949219 488.035156 256.542969 485.84375 259.609375 484.300781 L 265.191406 481.492188 L 266.15625 483.011719 C 266.6875 483.851562 267.132812 487.175781 267.144531 490.398438 L 267.160156 496.257812 L 268.964844 496.949219 C 269.960938 497.332031 273.425781 497.628906 276.671875 497.613281 L 282.574219 497.582031 L 278.722656 494.394531 L 274.871094 491.203125 L 275.609375 488.875 C 276.019531 487.597656 277.367188 485.632812 278.605469 484.511719 C 282.414062 481.074219 280.886719 478.269531 275.210938 478.269531 C 274.09375 478.269531 271.882812 477.253906 270.300781 476.011719 L 267.421875 473.753906 L 266.675781 469.777344 C 266.265625 467.59375 265.128906 465.003906 264.148438 464.027344 L 262.367188 462.25 L 262.367188 458.261719 C 262.367188 453.289062 264.257812 450.917969 268.222656 450.917969 L 271.289062 450.917969 L 274.910156 445.789062 L 278.53125 440.664062 L 287.578125 440.664062 L 288.347656 439.414062 L 289.121094 438.167969 L 294.558594 439.207031 L 294.519531 437.941406 C 294.496094 437.242188 293.746094 435.390625 292.847656 433.824219 C 291.949219 432.257812 291.199219 428.726562 291.175781 425.980469 L 291.136719 420.984375 L 288.714844 417.078125 L 286.296875 413.175781 L 287.671875 406.199219 C 289.371094 397.578125 292.089844 390.582031 296.882812 382.492188 L 300.570312 376.273438 L 299.257812 371.714844 C 298.535156 369.207031 297.347656 364.199219 296.617188 360.585938 L 295.292969 354.019531 L 297.773438 350.667969 L 300.257812 347.320312 L 296.445312 344.417969 C 294.347656 342.820312 292.234375 341.515625 291.75 341.515625 C 290.671875 341.515625 279.484375 333.5 278.28125 331.863281 C 277.804688 331.214844 277.546875 328.125 277.710938 324.988281 L 278.007812 319.292969 L 282.328125 317.183594 L 286.652344 315.074219 L 285.875 312.636719 C 285.449219 311.296875 283.835938 308.296875 282.292969 305.964844 L 279.480469 301.726562 L 278.726562 295.691406 L 277.96875 289.660156 L 275.132812 290.046875 C 273.574219 290.257812 268.898438 290.679688 264.742188 290.988281 L 257.1875 291.542969 L 254.867188 288.59375 C 253.585938 286.972656 251.90625 282.957031 251.128906 279.671875 C 250.355469 276.390625 248.507812 271.285156 247.023438 268.328125 C 245.542969 265.371094 244.328125 261.972656 244.328125 260.777344 L 244.328125 258.601562 L 247.863281 256.894531 C 249.804688 255.953125 252.011719 253.96875 252.769531 252.476562 L 254.144531 249.773438 L 258.941406 249.871094 L 263.734375 249.96875 L 263.734375 244.730469 L 255.421875 238.59375 C 238.84375 226.355469 235.972656 219 244.359375 210.238281 C 249.097656 205.289062 248.859375 204.609375 238.796875 194.402344 Z M 229.84375 185.316406 "
            fill-opacity="1" fill-rule="nonzero" />
    </g>
    <g clip-path="url(#7541d30038)">
        <path fill="#fff"
            d="M 286.242188 474.40625 C -47.574219 -93.222656 -47.574219 -93.222656 286.242188 474.40625 Z M 654.019531 378.414062 L 646.933594 380.882812 L 642.070312 379.660156 C 634.375 377.71875 632.070312 378.128906 621.296875 383.34375 L 611.15625 388.25 L 593.953125 389.175781 L 576.753906 390.101562 L 566.375 395.242188 C 560.664062 398.070312 554.613281 400.671875 552.929688 401.023438 L 549.871094 401.664062 L 547.136719 407.636719 C 545.636719 410.917969 544.40625 414.601562 544.40625 415.820312 C 544.40625 417.039062 543.230469 419.40625 541.792969 421.082031 L 539.175781 424.125 L 522.761719 424.296875 C 513.730469 424.394531 501.628906 425.035156 495.863281 425.722656 C 490.101562 426.410156 477.6875 427.742188 468.28125 428.679688 C 446.867188 430.820312 437.699219 433.683594 423.050781 442.796875 L 419.1875 445.199219 L 408.707031 445.75 L 398.226562 446.304688 L 398.226562 474.878906 L 395.46875 475.65625 C 391.203125 476.851562 381.027344 476.761719 376.429688 475.488281 L 372.285156 474.335938 L 367.472656 467.820312 L 357.195312 467.820312 L 353.820312 466.136719 L 350.453125 464.457031 L 349.25 457.5625 L 348.050781 450.667969 L 348.75 438.449219 L 349.449219 426.234375 L 346.839844 424.402344 C 345.402344 423.398438 343.46875 422.582031 342.542969 422.589844 L 340.855469 422.601562 L 335.972656 430.035156 C 328.96875 440.699219 323.796875 446.921875 310.597656 460.554688 C 304.183594 467.179688 297.371094 474.257812 295.460938 476.277344 L 291.984375 479.957031 L 286.867188 479.957031 L 284.277344 482.976562 L 281.679688 485.996094 L 284.238281 487.980469 C 296.347656 497.367188 294.632812 500.449219 277.992188 499.199219 L 268.042969 498.453125 L 266.109375 496.757812 L 264.179688 495.066406 L 264.179688 486.578125 L 262.511719 486.578125 C 261.589844 486.578125 259.976562 487.0625 258.925781 487.65625 C 257.871094 488.246094 255.0625 489.5 252.679688 490.441406 L 248.34375 492.148438 L 249.644531 493.445312 C 251.949219 495.75 251.039062 498.375 246.527344 502.449219 L 242.113281 506.4375 L 242.113281 508.582031 C 242.113281 509.761719 242.539062 510.988281 243.054688 511.308594 C 243.574219 511.628906 244.851562 514.597656 245.890625 517.902344 L 247.78125 523.917969 L 251.292969 525.558594 L 254.800781 527.199219 L 263.046875 526.585938 L 271.296875 525.976562 L 273.332031 523.382812 L 275.375 520.789062 L 278.65625 520.789062 C 283.050781 520.789062 287.539062 523.238281 291.214844 527.644531 C 295.316406 532.558594 296.976562 533.390625 302.96875 533.539062 L 308.109375 533.664062 L 311.601562 536.605469 L 315.101562 539.550781 L 329.566406 539.550781 L 333.28125 541.84375 C 335.324219 543.109375 336.996094 544.585938 336.996094 545.128906 C 336.996094 546.511719 342.324219 549.054688 346.984375 549.894531 L 350.90625 550.601562 L 357.765625 557.492188 C 365.011719 564.769531 367.195312 568.105469 368.445312 573.792969 L 369.214844 577.289062 L 375.03125 579.863281 C 378.230469 581.277344 381.882812 583.75 383.144531 585.359375 L 385.441406 588.277344 L 397.121094 591.347656 L 399.054688 593.710938 L 400.984375 596.074219 L 400.984375 603.554688 L 405.398438 607.96875 L 409.125 607.96875 C 411.175781 607.96875 414.59375 608.695312 416.71875 609.585938 L 420.585938 611.203125 L 421.175781 613.722656 C 421.5 615.109375 421.363281 618.730469 420.875 621.765625 L 419.984375 627.28125 L 420.941406 629.09375 L 421.898438 630.910156 L 431.023438 632.105469 C 440.230469 633.308594 450.257812 634.359375 454.691406 634.578125 C 458.207031 634.753906 472.109375 628.050781 474.90625 624.835938 L 477.300781 622.078125 L 480.582031 622.734375 C 482.386719 623.097656 486.492188 625.136719 489.703125 627.265625 C 492.914062 629.398438 496.347656 631.144531 497.335938 631.144531 C 499.828125 631.144531 508.246094 627.703125 510.011719 625.960938 L 511.46875 624.523438 L 519.738281 624.523438 L 524.226562 628.363281 L 528.710938 632.203125 L 547.078125 638.007812 L 550.707031 641.640625 C 556.828125 647.761719 550.0625 662.261719 534.695312 675.953125 C 530.679688 679.53125 527.875 684.355469 527.867188 687.703125 L 527.859375 690.738281 L 531.445312 690.730469 C 533.417969 690.730469 536.949219 690.191406 539.296875 689.539062 C 541.644531 688.886719 544.730469 688.652344 546.160156 689.011719 L 548.765625 689.664062 L 553.421875 696.269531 C 560.636719 706.5 562.019531 705.109375 562.046875 687.597656 L 562.0625 677.28125 L 565.355469 660.558594 C 567.167969 651.363281 570.992188 632.167969 573.851562 617.90625 L 579.046875 591.972656 L 579.464844 583.484375 L 579.878906 574.992188 L 575.308594 570.035156 L 570.738281 565.070312 L 571.914062 562.871094 C 572.5625 561.65625 573.09375 559.207031 573.09375 557.425781 L 573.09375 554.183594 L 568.085938 552.78125 C 562.621094 551.25 556.109375 546.605469 552.90625 541.957031 L 550.875 539 L 551.496094 529.285156 C 551.835938 523.945312 552.601562 518.660156 553.199219 517.546875 L 554.28125 515.527344 L 562.183594 513.742188 C 566.53125 512.761719 571.765625 510.917969 573.816406 509.652344 L 577.546875 507.34375 L 581.972656 509.65625 L 586.402344 511.964844 L 594.125 511.964844 L 594.765625 510.300781 L 595.402344 508.636719 L 593.628906 505.925781 C 592.648438 504.433594 591.847656 502.277344 591.847656 501.136719 C 591.847656 496.257812 583.921875 493.21875 571.164062 493.210938 C 566.765625 493.207031 563.144531 492.832031 563.125 492.375 C 563.101562 491.921875 562.8125 486.460938 562.484375 480.242188 L 561.882812 468.9375 L 565.007812 467.699219 L 568.128906 466.460938 L 634.011719 467.78125 L 632.707031 466.214844 C 631.992188 465.351562 631.566406 463.25 631.761719 461.542969 L 632.117188 458.441406 L 634.597656 458.089844 L 637.082031 457.738281 L 640.246094 459.992188 C 641.988281 461.230469 644.046875 463.78125 644.824219 465.660156 L 646.238281 469.070312 L 647.910156 467.398438 C 648.828125 466.476562 649.660156 464.832031 649.757812 463.738281 C 649.855469 462.648438 650.265625 460.757812 650.675781 459.546875 L 651.417969 457.339844 L 661.433594 453.664062 C 666.941406 451.644531 672.15625 450.261719 673.019531 450.59375 L 674.59375 451.199219 L 674.59375 461.050781 L 676.65625 461.707031 C 677.789062 462.066406 679.511719 463.238281 680.480469 464.3125 L 682.246094 466.261719 L 683.867188 477.050781 C 684.757812 482.988281 686.066406 488.542969 686.777344 489.394531 L 688.066406 490.949219 L 689.878906 489.949219 C 690.878906 489.398438 692.632812 488.25 693.78125 487.390625 L 695.871094 485.832031 L 677.902344 450.035156 L 677.902344 442.515625 L 669.3125 433.648438 L 660.71875 424.785156 L 653.5625 424.785156 L 652.933594 423.140625 L 652.300781 421.496094 L 656.859375 416.054688 C 659.363281 413.0625 664.132812 408.808594 667.453125 406.601562 C 670.773438 404.398438 673.492188 402.414062 673.492188 402.191406 C 673.492188 400.324219 671.648438 397.960938 669.582031 397.175781 L 667.074219 396.222656 L 666.328125 392.828125 L 665.585938 389.429688 L 662.367188 387.769531 C 660.597656 386.851562 659.148438 385.457031 659.148438 384.667969 C 659.148438 383.878906 657.996094 382.148438 656.582031 380.824219 Z M 654.019531 378.414062 "
            fill-opacity="1" fill-rule="nonzero" />
    </g>
</svg>