<svg xmlns="http://www.w3.org/2000/svg" xmlns:xlink="http://www.w3.org/1999/xlink" width="1080" zoomAndPan="magnify" viewBox="0 0 810 809.999993" height="1080" preserveAspectRatio="xMidYMid meet" version="1.0"><defs><clipPath id="5a22d59b56"><path d="M 143.535156 34 L 666.285156 34 L 666.285156 775 L 143.535156 775 Z M 143.535156 34 " clip-rule="nonzero"/></clipPath></defs><g clip-path="url(#5a22d59b56)"><path fill="#000000" d="M 563.65625 34.730469 C 561.503906 34.410156 558.367188 36.035156 552.191406 39.300781 L 540.722656 45.363281 L 536.1875 64.667969 L 531.648438 83.96875 L 524.421875 91.515625 L 517.195312 99.054688 L 518.121094 103.867188 L 519.050781 108.675781 L 528.761719 110.972656 C 534.105469 112.234375 540.492188 115.5 542.957031 118.222656 L 547.441406 123.175781 L 541.546875 131.445312 L 535.65625 139.722656 L 541.265625 145.691406 C 549.929688 154.910156 545.175781 169.84375 528.558594 185.625 L 520.375 193.402344 L 513.058594 187.050781 C 509.035156 183.558594 503.65625 178.433594 501.101562 175.664062 L 496.457031 170.628906 L 496.457031 156.117188 L 491.390625 151.539062 L 486.324219 146.953125 L 484.816406 151.785156 C 483.992188 154.445312 482.246094 166.308594 480.9375 178.148438 L 478.550781 199.671875 L 467.148438 219.269531 C 460.875 230.050781 451.527344 243.351562 446.371094 248.824219 L 437.003906 258.773438 L 429.90625 258.773438 C 426.003906 258.773438 421.5 257.191406 419.898438 255.265625 L 416.988281 251.761719 L 418.613281 238.019531 L 420.242188 224.28125 L 417.34375 224.28125 C 415.75 224.28125 411.320312 225.707031 407.496094 227.449219 L 400.550781 230.613281 L 398.195312 226.804688 C 396.898438 224.710938 396.324219 220.601562 396.910156 217.667969 C 397.492188 214.738281 399.4375 204.34375 401.234375 194.5625 L 404.507812 176.785156 L 399.734375 166.191406 L 394.953125 155.605469 L 384.621094 151.476562 C 371.722656 146.316406 366.210938 146.28125 356.695312 151.308594 C 352.566406 153.492188 344.703125 157.015625 339.21875 159.140625 L 329.25 163 L 326.917969 169.097656 C 323.386719 178.324219 315.71875 183.972656 305.402344 184.941406 L 296.117188 185.8125 L 295.328125 192.445312 C 293.914062 204.375 289.292969 212.808594 280.691406 219.167969 L 272.234375 225.421875 L 247.023438 225.515625 L 221.816406 225.609375 L 213.167969 219.4375 L 204.523438 213.269531 L 198.925781 200.984375 L 193.320312 188.695312 L 194.804688 174.363281 L 196.28125 160.023438 L 202.765625 150.234375 C 212.546875 135.457031 223.144531 113.621094 223.121094 108.292969 L 223.101562 103.5625 L 212.730469 97.636719 L 202.355469 91.714844 L 200.542969 83.449219 L 198.722656 75.179688 L 190.027344 83.609375 L 181.328125 92.035156 L 170.164062 93.535156 L 158.996094 95.03125 L 157.628906 98.613281 C 156.875 100.582031 158.765625 106.449219 161.835938 111.652344 L 167.417969 121.109375 L 167.417969 131.035156 C 167.417969 136.5 168.707031 142.257812 170.28125 143.832031 C 171.851562 145.402344 172.75 150.117188 172.269531 154.308594 L 171.398438 161.929688 L 160.785156 161.929688 C 147.152344 161.929688 143.535156 164.433594 143.535156 173.875 L 143.535156 181.53125 L 149.507812 188.457031 C 152.792969 192.269531 163.835938 201.609375 174.050781 209.21875 L 192.628906 223.046875 L 196.550781 234.34375 L 200.472656 245.648438 L 197.507812 250.21875 L 194.539062 254.792969 L 183.589844 254.074219 L 172.632812 253.359375 L 170.117188 259.96875 L 167.605469 266.582031 L 160.878906 268.269531 L 154.152344 269.960938 L 154.152344 273.5 C 154.152344 275.445312 156.53125 281.070312 159.4375 285.992188 C 162.34375 290.917969 165.933594 301.351562 167.417969 309.179688 C 168.902344 317.003906 172.085938 325.578125 174.488281 328.230469 L 178.855469 333.0625 L 185.738281 333.070312 C 189.527344 333.078125 198.246094 331.070312 205.113281 328.609375 L 217.59375 324.136719 L 223.972656 327.046875 L 230.347656 329.945312 L 232.050781 338.464844 C 232.988281 343.152344 233.757812 350.144531 233.757812 354 L 233.757812 361.011719 L 240.765625 371.320312 L 247.765625 381.628906 L 249.046875 392.984375 L 250.332031 404.34375 L 240.054688 409.175781 L 229.777344 414.003906 L 228.964844 419.6875 L 228.15625 425.375 L 236.925781 433.769531 C 241.75 438.382812 251.144531 444.980469 257.804688 448.429688 C 277.441406 458.589844 297.046875 483.59375 286.164062 484.597656 C 284.339844 484.765625 281.058594 485.066406 278.867188 485.261719 L 274.886719 485.617188 L 274.042969 492.9375 C 273.578125 496.960938 275.890625 508.769531 279.171875 519.171875 L 285.144531 538.09375 L 277.878906 550.328125 C 265.035156 571.949219 257.089844 591.335938 254.15625 608.210938 L 251.296875 624.671875 L 256.238281 630.132812 L 261.183594 635.597656 L 262.039062 649.792969 C 262.507812 657.601562 264.683594 667.4375 266.878906 671.648438 C 275.386719 687.953125 265.351562 711.175781 256.199219 696.367188 L 254.445312 693.53125 L 250.074219 695.421875 C 247.664062 696.460938 240.929688 698.035156 235.105469 698.921875 L 224.515625 700.527344 L 220.355469 709.339844 C 215.613281 719.382812 211.023438 722.976562 202.863281 723.035156 C 195.761719 723.085938 193.316406 728.867188 197.644531 735.375 C 199.453125 738.097656 202.375 745.316406 204.132812 751.425781 L 207.332031 762.527344 L 221.210938 766.660156 C 228.839844 768.929688 239.0625 773.402344 239.0625 773.402344 C 244.429688 776.925781 252.78125 774.273438 257.632812 767.5 C 259.824219 764.441406 275.433594 747.523438 292.320312 729.902344 C 329.882812 690.71875 346.878906 669.1875 361.199219 642.636719 L 372.175781 622.300781 L 379.914062 617.722656 L 387.65625 613.152344 L 387.65625 608.539062 C 387.65625 599.535156 396.585938 583.835938 412.867188 564.230469 C 415.785156 560.714844 427.023438 550.234375 437.839844 540.941406 L 457.515625 524.042969 L 467.695312 520.992188 L 477.878906 517.945312 L 477.878906 500.210938 L 483.289062 494.796875 C 486.265625 491.820312 491.789062 488.210938 495.554688 486.78125 L 502.40625 484.179688 L 505.90625 487.082031 C 507.832031 488.679688 509.777344 493.179688 510.226562 497.085938 L 511.046875 504.191406 L 528.292969 505.519531 C 537.78125 506.246094 546.875 507.707031 548.5 508.765625 L 551.460938 510.695312 L 554.195312 476.617188 L 562.472656 458.933594 L 570.75 441.246094 L 570.839844 430.265625 L 570.929688 419.289062 L 581.96875 406.023438 L 595.273438 406.597656 L 608.582031 407.167969 L 614.214844 404.167969 C 639.15625 390.871094 645.015625 380.519531 634.429688 368.464844 L 626.457031 359.386719 L 628.183594 340.253906 C 630.449219 315.128906 630.714844 314.597656 647.6875 300.824219 L 662.253906 289 L 664.117188 278.523438 C 665.136719 272.765625 666.046875 261.726562 666.125 253.992188 L 666.28125 239.933594 L 662.476562 232.578125 C 657.25 222.46875 651.746094 218.316406 637.414062 213.667969 L 625.152344 209.6875 L 621.535156 198.257812 L 617.917969 186.820312 L 622.042969 175.703125 C 624.3125 169.589844 627.5625 157.238281 629.265625 148.265625 L 632.371094 131.949219 L 629.179688 122.269531 L 625.980469 112.59375 L 615.8125 105.863281 L 605.644531 99.136719 L 601.46875 90.332031 C 599.167969 85.488281 597.269531 77.53125 597.25 72.644531 C 597.230469 67.757812 595.707031 60.777344 593.863281 57.128906 L 590.515625 50.496094 L 581.367188 49.171875 L 572.222656 47.84375 L 569.230469 41.828125 C 566.988281 37.3125 565.808594 35.046875 563.652344 34.726562 Z M 563.65625 34.730469 " fill-opacity="1" fill-rule="nonzero"/></g></svg>