<svg xmlns="http://www.w3.org/2000/svg" xmlns:xlink="http://www.w3.org/1999/xlink" width="1080" zoomAndPan="magnify" viewBox="0 0 810 809.999993" height="1080" preserveAspectRatio="xMidYMid meet" version="1.0"><defs><clipPath id="0de2a1ae82"><path d="M 245.125 32.410156 L 564.625 32.410156 L 564.625 777.910156 L 245.125 777.910156 Z M 245.125 32.410156 " clip-rule="nonzero"/></clipPath></defs><g clip-path="url(#0de2a1ae82)"><path fill="#000000" d="M 410.90625 32.4375 L 406.792969 34.019531 C 401.011719 36.242188 401.238281 37.039062 415.21875 63.636719 L 427.753906 87.484375 L 426.394531 91.707031 C 425.644531 94.03125 421.628906 97.863281 417.476562 100.222656 L 409.921875 104.511719 L 406.519531 112.644531 C 404.648438 117.117188 400.21875 123.492188 396.679688 126.8125 L 390.246094 132.851562 L 382.816406 125.726562 L 375.390625 118.601562 L 375.390625 136.164062 L 366.707031 145.113281 C 356.015625 156.136719 356.015625 156.410156 366.707031 169.222656 C 371.480469 174.945312 375.390625 180.605469 375.390625 181.796875 C 375.390625 182.992188 381.4375 188.441406 388.828125 193.910156 L 402.273438 203.851562 L 407.4375 217.683594 C 413.390625 233.609375 413.96875 242.007812 409.378906 245.824219 L 406.148438 248.511719 L 401.039062 247.171875 L 395.925781 245.832031 L 394.367188 249.898438 L 392.808594 253.960938 L 399.609375 260.613281 C 403.347656 264.269531 408.917969 270.574219 411.988281 274.621094 L 417.574219 281.980469 L 417.574219 289.640625 C 417.574219 293.851562 415.835938 299.78125 413.710938 302.816406 L 409.847656 308.339844 L 400.0625 308.339844 C 389.015625 308.339844 387.945312 310.429688 395.492188 317.265625 C 406.671875 327.394531 412.609375 353.953125 412.609375 393.828125 L 412.609375 411.121094 L 407.214844 416.871094 C 404.25 420.03125 400.195312 422.621094 398.207031 422.621094 L 394.589844 422.621094 L 396.074219 431.765625 C 397.8125 442.476562 402.660156 448.117188 410.625 448.683594 L 416.332031 449.09375 L 417.101562 455.582031 L 417.875 462.066406 L 424.546875 462.839844 L 431.21875 463.617188 L 432 469.09375 L 432.777344 474.574219 L 420.835938 483.230469 C 414.265625 487.988281 401.207031 500.417969 391.816406 510.847656 L 374.742188 529.816406 L 367.78125 553.582031 L 355.148438 565.472656 L 312.117188 566.441406 L 301.390625 578.378906 C 295.492188 584.941406 288.511719 594.460938 285.882812 599.527344 L 281.109375 608.738281 L 284.589844 621.886719 C 286.503906 629.117188 289.257812 638.085938 290.710938 641.820312 L 293.347656 648.609375 L 288.625 651.136719 C 286.027344 652.527344 275.523438 653.667969 265.28125 653.667969 L 246.652344 653.667969 L 245.25 655.945312 C 243.503906 658.777344 260.167969 673.273438 279.859375 686.046875 C 293.207031 694.710938 305.171875 703.386719 336.046875 726.796875 L 345.671875 734.09375 L 361.152344 735.144531 L 376.632812 736.191406 L 383.691406 742.75 C 387.574219 746.359375 393.066406 754.347656 395.894531 760.496094 C 398.722656 766.644531 402.105469 773.074219 403.40625 774.78125 L 405.773438 777.882812 L 429.445312 777.882812 L 430.78125 774.414062 C 431.511719 772.503906 428.769531 763.875 424.6875 755.238281 L 417.269531 739.523438 L 428.976562 729.355469 L 440.683594 719.183594 L 433.527344 712.542969 L 426.375 705.898438 L 430.039062 702.589844 C 432.054688 700.769531 440.402344 697.269531 448.589844 694.808594 C 456.777344 692.34375 468.933594 687.574219 475.605469 684.203125 L 487.734375 678.082031 L 489.832031 681.398438 C 490.988281 683.226562 491.953125 690.472656 491.972656 697.5 L 492.011719 710.277344 L 495.9375 711.785156 C 498.097656 712.613281 505.632812 713.261719 512.6875 713.226562 L 525.511719 713.160156 L 517.140625 706.210938 L 508.773438 699.257812 L 510.378906 694.183594 C 511.265625 691.390625 514.195312 687.109375 516.890625 684.667969 C 525.164062 677.171875 521.851562 671.0625 509.511719 671.0625 C 507.078125 671.0625 502.277344 668.847656 498.835938 666.136719 L 492.578125 661.210938 L 490.960938 652.550781 C 490.070312 647.789062 487.59375 642.144531 485.464844 640.011719 L 481.59375 636.136719 L 481.59375 627.445312 C 481.59375 616.605469 485.703125 611.4375 494.320312 611.4375 L 500.984375 611.4375 L 516.726562 589.078125 L 536.386719 589.078125 L 538.0625 586.355469 L 539.738281 583.640625 L 545.652344 584.769531 L 551.566406 585.90625 L 551.476562 583.144531 C 551.429688 581.625 549.792969 577.589844 547.84375 574.171875 C 545.894531 570.757812 544.257812 563.0625 544.207031 557.074219 L 544.121094 546.183594 L 538.863281 537.667969 L 533.609375 529.160156 L 536.59375 513.945312 C 540.289062 495.152344 546.195312 479.902344 556.613281 462.269531 L 564.625 448.714844 L 561.773438 438.777344 C 560.203125 433.308594 557.621094 422.390625 556.039062 414.519531 L 553.160156 400.207031 L 558.554688 392.898438 L 563.949219 385.59375 L 555.660156 379.269531 C 551.101562 375.789062 546.511719 372.941406 545.457031 372.941406 C 543.117188 372.941406 518.800781 355.464844 516.183594 351.902344 C 515.144531 350.488281 514.585938 343.75 514.941406 336.917969 L 515.585938 324.496094 L 524.976562 319.902344 L 534.375 315.304688 L 532.6875 309.992188 C 531.761719 307.070312 528.257812 300.527344 524.902344 295.445312 L 518.792969 286.203125 L 517.152344 273.050781 L 515.507812 259.902344 L 509.34375 260.742188 C 505.953125 261.203125 495.789062 262.125 486.757812 262.792969 L 470.339844 264.007812 L 465.289062 257.578125 C 462.511719 254.039062 458.855469 245.289062 457.171875 238.128906 C 455.488281 230.972656 451.476562 219.84375 448.25 213.398438 C 445.023438 206.953125 442.386719 199.546875 442.386719 196.941406 L 442.386719 192.195312 L 450.066406 188.472656 C 454.292969 186.425781 459.089844 182.09375 460.734375 178.847656 L 463.726562 172.945312 L 474.148438 173.160156 L 484.570312 173.371094 L 484.570312 161.960938 L 466.5 148.582031 C 430.46875 121.902344 424.230469 105.863281 442.460938 86.765625 C 452.757812 75.976562 452.238281 74.496094 430.367188 52.242188 Z M 410.90625 32.4375 " fill-opacity="1" fill-rule="nonzero"/></g></svg>