<svg xmlns="http://www.w3.org/2000/svg" xmlns:xlink="http://www.w3.org/1999/xlink" width="1080" zoomAndPan="magnify" viewBox="0 0 810 809.999993" height="1080" preserveAspectRatio="xMidYMid meet" version="1.0"><defs><clipPath id="9d2c68eabc"><path d="M 17.074219 120.710938 L 792 120.710938 L 792 689.210938 L 17.074219 689.210938 Z M 17.074219 120.710938 " clip-rule="nonzero"/></clipPath></defs><g clip-path="url(#9d2c68eabc)"><path fill="#000000" d="M 97.214844 302.863281 C -468.34375 -658.59375 -468.34375 -658.59375 97.214844 302.863281 Z M 720.304688 140.269531 L 714.308594 142.359375 L 708.304688 144.453125 L 700.066406 142.378906 C 687.023438 139.09375 683.125 139.789062 664.871094 148.617188 L 647.6875 156.929688 L 618.546875 158.5 L 589.402344 160.066406 L 571.816406 168.773438 C 562.144531 173.5625 551.894531 177.972656 549.039062 178.570312 L 543.855469 179.652344 L 539.226562 189.765625 C 536.683594 195.328125 534.601562 201.566406 534.601562 203.632812 C 534.601562 205.695312 532.609375 209.707031 530.171875 212.539062 L 525.738281 217.695312 L 497.925781 217.992188 C 482.632812 218.15625 462.125 219.242188 452.359375 220.402344 C 442.59375 221.566406 421.5625 223.820312 405.628906 225.414062 C 369.34375 229.039062 353.8125 233.882812 328.996094 249.320312 L 322.453125 253.390625 L 304.695312 254.328125 L 286.9375 255.261719 L 286.9375 303.664062 L 282.265625 304.976562 C 275.039062 307.007812 257.800781 306.855469 250.011719 304.691406 L 242.992188 302.742188 L 234.835938 291.710938 L 217.421875 291.710938 L 211.707031 288.859375 L 206 286.011719 L 203.964844 274.332031 L 201.933594 262.652344 L 203.113281 241.960938 L 204.300781 221.269531 L 199.878906 218.167969 C 197.445312 216.464844 194.167969 215.082031 192.597656 215.09375 L 189.742188 215.117188 L 181.46875 227.707031 C 169.605469 245.773438 160.84375 256.308594 138.480469 279.398438 C 127.609375 290.621094 116.066406 302.609375 112.828125 306.035156 L 106.941406 312.269531 L 98.273438 312.269531 L 93.882812 317.378906 L 89.488281 322.492188 L 93.820312 325.851562 C 114.335938 341.757812 111.429688 346.976562 83.238281 344.859375 L 66.378906 343.589844 L 63.105469 340.722656 L 59.835938 337.855469 L 59.835938 323.484375 L 57.007812 323.484375 C 55.449219 323.484375 52.71875 324.300781 50.933594 325.304688 C 49.148438 326.304688 44.386719 328.429688 40.347656 330.019531 L 33.007812 332.914062 L 35.207031 335.113281 C 39.113281 339.015625 37.574219 343.457031 29.929688 350.363281 L 22.453125 357.117188 L 22.453125 360.75 C 22.453125 362.746094 23.171875 364.828125 24.046875 365.367188 C 24.925781 365.910156 27.085938 370.9375 28.847656 376.539062 L 32.050781 386.730469 L 43.949219 392.285156 L 57.917969 391.25 L 71.890625 390.210938 L 75.34375 385.820312 L 78.800781 381.429688 L 84.367188 381.429688 C 91.808594 381.429688 99.410156 385.574219 105.640625 393.042969 C 112.589844 401.367188 115.398438 402.773438 125.550781 403.023438 L 134.257812 403.234375 L 140.179688 408.21875 L 146.105469 413.203125 L 170.613281 413.203125 L 176.90625 417.09375 C 180.371094 419.234375 183.199219 421.734375 183.199219 422.652344 C 183.199219 424.992188 192.226562 429.300781 200.125 430.726562 L 206.765625 431.925781 L 218.390625 443.59375 C 230.667969 455.917969 234.371094 461.570312 236.484375 471.207031 L 237.785156 477.128906 L 247.644531 481.488281 C 253.0625 483.886719 259.246094 488.074219 261.386719 490.792969 L 265.277344 495.742188 L 275.175781 498.339844 L 285.070312 500.9375 L 288.339844 504.941406 L 291.613281 508.945312 L 291.613281 521.617188 L 299.089844 529.09375 L 305.402344 529.09375 C 308.875 529.09375 314.667969 530.324219 318.269531 531.828125 L 324.820312 534.566406 L 325.820312 538.839844 C 326.367188 541.1875 326.140625 547.320312 325.3125 552.460938 L 323.804688 561.804688 L 325.425781 564.875 L 327.046875 567.949219 L 342.507812 569.972656 C 358.105469 572.015625 375.09375 573.789062 382.605469 574.164062 C 388.558594 574.460938 412.117188 563.105469 416.847656 557.664062 L 420.910156 552.988281 L 426.46875 554.101562 C 429.527344 554.714844 436.480469 558.167969 441.921875 561.78125 C 447.363281 565.390625 453.179688 568.347656 454.851562 568.347656 C 459.074219 568.347656 473.335938 562.515625 476.328125 559.566406 L 478.796875 557.132812 L 492.808594 557.132812 L 508.011719 570.140625 L 523.566406 575.058594 L 539.125 579.972656 L 545.277344 586.125 C 555.648438 596.496094 544.183594 621.058594 518.144531 644.246094 C 511.339844 650.304688 506.59375 658.476562 506.578125 664.144531 L 506.566406 669.285156 L 512.640625 669.277344 C 515.980469 669.273438 521.96875 668.363281 525.945312 667.257812 C 529.917969 666.15625 535.152344 665.753906 537.574219 666.359375 L 541.984375 667.46875 L 549.878906 678.65625 L 549.875 678.65625 C 562.09375 695.988281 564.441406 693.632812 564.484375 663.964844 L 564.511719 646.492188 L 570.09375 618.171875 C 573.164062 602.59375 579.640625 570.078125 584.484375 545.921875 L 593.289062 501.996094 L 593.996094 487.617188 L 594.695312 473.238281 L 579.210938 456.433594 L 581.207031 452.703125 C 582.304688 450.648438 583.203125 446.5 583.203125 443.480469 L 583.203125 437.992188 L 574.71875 435.617188 C 565.460938 433.023438 554.425781 425.15625 549.003906 417.28125 L 545.558594 412.273438 L 546.609375 395.820312 C 547.1875 386.769531 548.488281 377.820312 549.496094 375.9375 L 551.332031 372.511719 L 564.71875 369.488281 C 572.082031 367.828125 580.953125 364.707031 584.425781 362.5625 L 590.746094 358.65625 L 598.246094 362.566406 L 605.75 366.476562 L 618.832031 366.476562 L 619.917969 363.660156 L 621 360.839844 L 617.992188 356.25 C 616.335938 353.722656 614.980469 350.074219 614.980469 348.140625 C 614.980469 339.875 601.546875 334.726562 579.933594 334.710938 C 572.480469 334.707031 566.347656 334.070312 566.3125 333.300781 C 566.277344 332.527344 565.785156 323.28125 565.226562 312.75 L 564.207031 293.601562 L 569.503906 291.503906 L 574.792969 289.40625 L 686.410156 291.640625 L 684.203125 288.988281 C 682.988281 287.523438 682.269531 283.964844 682.601562 281.074219 L 683.203125 275.820312 L 687.40625 275.222656 L 691.609375 274.628906 L 696.972656 278.449219 C 699.921875 280.550781 703.414062 284.867188 704.730469 288.046875 L 707.121094 293.824219 L 709.957031 290.992188 C 711.511719 289.433594 712.921875 286.648438 713.085938 284.796875 C 713.253906 282.945312 713.953125 279.75 714.644531 277.691406 L 715.898438 273.953125 L 732.867188 267.730469 C 742.199219 264.308594 751.035156 261.96875 752.5 262.53125 L 755.164062 263.558594 L 755.164062 280.246094 L 758.660156 281.351562 C 760.578125 281.960938 763.496094 283.945312 765.140625 285.765625 L 768.128906 289.066406 L 770.878906 307.34375 C 772.386719 317.398438 774.605469 326.804688 775.804688 328.253906 L 777.988281 330.882812 L 781.0625 329.191406 C 782.753906 328.257812 785.730469 326.308594 787.675781 324.855469 L 791.210938 322.214844 L 760.773438 261.582031 L 760.773438 248.84375 L 746.21875 233.828125 L 731.660156 218.8125 L 719.535156 218.8125 L 718.46875 216.027344 L 717.398438 213.246094 L 725.117188 204.027344 C 729.363281 198.957031 737.441406 191.753906 743.066406 188.019531 C 748.695312 184.285156 753.296875 180.921875 753.296875 180.546875 C 753.296875 177.382812 750.175781 173.382812 746.675781 172.050781 L 742.429688 170.4375 L 741.164062 164.683594 L 739.902344 158.933594 L 734.453125 156.113281 C 731.453125 154.5625 728.996094 152.199219 728.996094 150.863281 C 728.996094 149.527344 727.042969 146.597656 724.652344 144.351562 Z M 720.304688 140.269531 " fill-opacity="1" fill-rule="nonzero"/></g></svg>