<svg xmlns="http://www.w3.org/2000/svg" xmlns:xlink="http://www.w3.org/1999/xlink" width="1080" zoomAndPan="magnify" viewBox="0 0 810 809.999993" height="1080" preserveAspectRatio="xMidYMid meet" version="1.0"><defs><clipPath id="ec60dcc0fe"><path d="M 18.941406 141 L 790.691406 141 L 790.691406 670 L 18.941406 670 Z M 18.941406 141 " clip-rule="nonzero"/></clipPath></defs><g clip-path="url(#ec60dcc0fe)"><path fill="#000000" d="M 444.996094 141.148438 C 440.933594 140.875 437.40625 142.007812 434.476562 144.5625 L 430.289062 148.210938 L 406.421875 149.816406 C 393.296875 150.695312 368.671875 151.441406 351.707031 151.472656 L 320.859375 151.535156 L 316.101562 171.75 C 311.34375 191.988281 303.828125 206.523438 296.371094 209.9375 C 294.179688 210.941406 290.003906 212.972656 287.085938 214.449219 L 281.785156 217.136719 L 281.007812 237.617188 L 280.230469 258.09375 L 288.300781 267.300781 C 292.738281 272.359375 296.371094 278.757812 296.371094 281.511719 L 296.371094 286.519531 L 282.449219 298.941406 C 265.644531 313.925781 254.996094 318.902344 240.921875 318.347656 L 230.328125 317.933594 L 226.21875 321.339844 L 222.117188 324.753906 L 222.117188 347.054688 L 205.976562 380.40625 L 204.71875 401.945312 C 204.027344 413.792969 202.292969 424.65625 200.871094 426.078125 L 198.285156 428.667969 L 182.550781 417.027344 L 169.011719 417.027344 C 161.5625 417.027344 153.160156 415.789062 150.339844 414.277344 L 145.210938 411.53125 L 145.210938 398.441406 L 141.5625 398.441406 C 135.625 398.441406 132.371094 404.414062 131.472656 416.96875 L 130.625 428.761719 L 120.566406 430.839844 C 95.082031 436.105469 48.023438 482.730469 41.328125 509.351562 L 38.402344 520.976562 L 28.160156 527.757812 C 15.695312 536.019531 15.550781 534.601562 29.679688 542.890625 L 41.4375 549.785156 L 43.363281 555.75 C 44.421875 559.03125 45.390625 579.835938 45.523438 601.984375 C 45.800781 648.542969 44.675781 646.226562 67.210938 646.59375 L 84.601562 646.871094 L 93.027344 656.5625 C 97.664062 661.890625 103.84375 666.785156 106.757812 667.4375 C 109.675781 668.089844 118.253906 668.761719 125.820312 668.929688 L 139.582031 669.234375 L 139.078125 636.152344 L 138.582031 603.066406 L 143.316406 598.320312 L 148.050781 593.570312 L 172.875 593.316406 L 197.699219 593.058594 L 206.59375 587.542969 C 211.484375 584.507812 225.035156 577.335938 236.703125 571.601562 L 257.917969 561.175781 L 284.4375 556.886719 C 327.800781 549.875 400.988281 543.472656 444.25 542.917969 L 484.722656 542.398438 L 488.390625 539.355469 C 490.402344 537.679688 492.648438 532.46875 493.375 527.773438 C 497.09375 503.832031 506.011719 491.085938 522.484375 486.167969 C 528.660156 484.324219 541.472656 478.832031 550.953125 473.957031 C 560.429688 469.082031 571.769531 463.644531 576.144531 461.871094 L 584.101562 458.644531 L 623.878906 456.875 L 663.65625 455.101562 L 672.9375 450.472656 C 678.042969 447.925781 686.632812 443.558594 692.023438 440.769531 C 697.417969 437.980469 706.425781 434.664062 712.042969 433.402344 L 722.253906 431.105469 L 735.382812 434.507812 C 742.605469 436.375 751.085938 437.289062 754.230469 436.535156 L 759.949219 435.160156 L 761.488281 429.410156 C 762.332031 426.246094 763.046875 419.226562 763.066406 413.8125 L 763.105469 403.964844 L 755.8125 397.199219 L 748.519531 390.425781 L 748.519531 355.273438 C 748.519531 335.941406 749.4375 316.855469 750.550781 312.867188 L 752.578125 305.613281 L 760.636719 301.445312 C 765.066406 299.152344 771.019531 294.945312 773.859375 292.101562 L 779.019531 286.9375 L 779.019531 263.757812 L 784.855469 256.332031 L 790.6875 248.90625 L 790.648438 240.710938 C 790.628906 236.199219 789.734375 229.085938 788.664062 224.898438 L 786.714844 217.289062 L 771.597656 218.734375 C 763.28125 219.53125 743.351562 222.15625 727.308594 224.566406 L 698.136719 228.953125 L 659.394531 228.722656 L 620.648438 228.488281 L 611.082031 232.492188 C 589.660156 241.449219 581.609375 237.113281 564.207031 207.253906 C 550.792969 184.238281 530.59375 161.773438 517.890625 155.738281 L 509.050781 151.539062 L 488.234375 151.527344 L 467.421875 151.515625 L 458.738281 146.21875 C 453.660156 143.121094 449.0625 141.429688 445 141.152344 Z M 444.996094 141.148438 " fill-opacity="1" fill-rule="nonzero"/></g></svg>