<?xml version="1.0" encoding="UTF-8" standalone="no"?>
<!-- Created with Inkscape (http://www.inkscape.org/) -->

<svg width="79.367661mm" height="51.858337mm" viewBox="0 0 79.367661 51.858337" version="1.1" id="svg1"
  xml:space="preserve" xmlns:inkscape="http://www.inkscape.org/namespaces/inkscape"
  xmlns:sodipodi="http://sodipodi.sourceforge.net/DTD/sodipodi-0.dtd" xmlns="http://www.w3.org/2000/svg"
  xmlns:svg="http://www.w3.org/2000/svg">
  <sodipodi:namedview id="namedview1" pagecolor="#505050" bordercolor="#eeeeee" borderopacity="1"
    inkscape:showpageshadow="0" inkscape:pageopacity="0" inkscape:pagecheckerboard="0" inkscape:deskcolor="#505050"
    inkscape:document-units="mm" inkscape:zoom="0.35767747" inkscape:cx="-176.13634" inkscape:cy="141.18865"
    inkscape:window-width="1920" inkscape:window-height="974" inkscape:window-x="-11" inkscape:window-y="-11"
    inkscape:window-maximized="1" inkscape:current-layer="layer2" showguides="false" />
  <defs id="defs1" />
  <path
    d="M 73.337606,8.6444819e-5 72.302526,1.2258514 l -1.03457,1.225248 -1.22163,-0.540019 c -1.48524,-0.657009 -1.51998,-0.628693 -1.34048,1.110528 l 0.14366,1.389579 -0.31575,0.589628 -0.31574,0.590145 -1.12344,0.481624 c -0.61773,0.264791 -2.1063,0.735903 -3.30833,1.047481 -2.44617,0.634077 -2.99261,0.928417 -5.01313,2.700611 -1.70185,1.4926966 -2.07435,1.5800336 -4.87154,1.1384316 -1.20047,-0.189526 -2.83765,-0.326978 -3.63802,-0.305408 -0.80036,0.02157 -1.84216,-0.05976 -2.3151,-0.180868 l -0.859893,-0.220141 v 0.939477 0.939995 l -0.697116,0.548287 c -0.833567,0.655682 -1.496235,0.685946 -3.040125,0.137459 l -1.157552,-0.411344 -0.825789,0.151928 -0.825273,0.152446 -1.213879,1.317232 -1.213363,1.317749 h -0.787549 -0.787548 l -0.08372,0.727604 -0.08372,0.727604 -0.79375,-0.07235 -0.79375,-0.07235 -0.98547,1.869654 -0.985469,1.869653 0.432532,1.081072 0.432531,1.081071 -0.306958,0.491443 c -0.168821,0.27032 -0.306958,0.655647 -0.306958,0.856278 0,0.200631 -0.23549,0.663413 -0.522965,1.028878 l -0.522449,0.664559 0.348299,1.342037 0.347783,1.342554 -0.188103,0.304891 -0.188619,0.30489 -1.835546,0.201539 c -1.009707,0.110833 -2.095362,0.339929 -2.412256,0.509529 l -0.576193,0.308508 -0.153479,0.719853 c -0.292664,1.370685 -0.637991,1.909418 -1.688269,2.636015 l -1.054716,0.730188 -0.0062,0.661458 c -0.0079,0.866873 0.207151,1.158653 1.242818,1.689303 l 0.859896,0.4408 v 1.23455 1.23455 l -1.055749,1.776636 c -1.776012,2.989472 -2.052991,4.396973 -1.192692,6.060612 l 0.431498,0.834057 0.973584,0.40721 0.974101,0.406694 1.778186,-0.127124 1.778186,-0.127124 0.659391,-0.432015 0.658875,-0.431498 0.299723,-1.125513 c 0.165049,-0.619047 0.390772,-1.304107 0.501261,-1.522388 l 0.200505,-0.396875 0.989087,-0.132291 0.989087,-0.132292 0.703833,-1.033529 0.703833,-1.033528 1.455208,-0.538469 1.455208,-0.538468 1.719792,-0.0052 1.719792,-0.0047 0.74104,0.491443 c 1.444687,0.95837 1.896811,2.729487 1.405599,5.506641 l -0.222209,1.256771 h 0.814421 0.81442 l 0.304374,0.56844 0.304374,0.568958 -0.15761,1.150834 -0.157616,1.151351 h 0.345716 c 0.522957,0 1.30119,-0.968932 2.65358,-3.302124 l 1.2237,-2.110982 0.0139,-0.931726 c 0.0314,-2.101171 0.79085,-5.297918 1.25832,-5.296318 0.72829,0.0025 2.43189,2.181731 2.43189,3.110921 0,0.275242 0.28879,0.771638 0.64182,1.103292 l 0.64182,0.603064 0.28784,-0.177767 c 0.15837,-0.09788 0.53322,-0.658771 0.83303,-1.246435 l 0.54518,-1.068669 -0.5488,-0.58446 c -0.66592,-0.708842 -0.69693,-1.290027 -0.10077,-1.88619 l 0.44803,-0.448035 -0.49867,-0.364836 c -0.27425,-0.200524 -0.77607,-0.364318 -1.11518,-0.364318 h -0.6165 l -0.29249,-0.642338 -0.29249,-0.641822 0.1602,-0.63872 c 0.0882,-0.351315 0.50833,-1.036709 0.93328,-1.523422 l 0.77256,-0.885217 0.15606,-0.943095 c 0.0859,-0.518766 0.15665,-1.269464 0.15865,-1.668115 0.002,-0.398651 0.31343,-1.500349 0.69298,-2.448429 l 0.6904,-1.723926 1.24953,-1.123963 c 1.62918,-1.464756 1.8021,-1.830228 2.02417,-4.280875 l 0.18655,-2.059307 0.95343,-1.101742 c 0.52418,-0.606067 1.17756,-1.634952 1.45211,-2.286165 0.27456,-0.651213 0.79485,-1.82092 1.15652,-2.599324 l 0.65784,-1.415418 1.82779,-1.182357 1.82728,-1.182357 0.83044,-1.4712276 0.83044,-1.471228 1.20096,-0.76171 c 1.23339,-0.782187 5.01711,-2.345077 5.67718,-2.345077 0.20335,0 0.68368,-0.247205 1.06711,-0.548803 l 0.69712,-0.548287 v -0.622701 -0.623219 l -0.95808,-0.789616 C 77.399716,0.53287444 75.776376,-5.55181e-7 74.251186,-5.55181e-7 Z M 13.807389,0.26466944 l -0.141593,0.369486 -0.14211,0.37000396 0.784448,0.698665 c 0.942104,0.839418 0.897575,0.933085 -0.932243,1.965773 -1.799686,1.015679 -2.558861,3.710212 -1.706355,6.054927 0.304061,0.8362716 0.773349,0.7420836 1.625223,-0.325561 l 0.734839,-0.920874 1.431437,-0.415996 1.431437,-0.415995 0.545703,-1.128096 c 0.654216,-1.351427 0.66988,-2.283019 0.06408,-3.863848 l -0.45372,-1.183391 -0.894002,-0.60254696 c -0.491797,-0.331417 -1.2211,-0.602547 -1.620573,-0.602547 z M 3.5093108,3.4396704 l -0.677995,0.628385 -0.677995,0.628386 -0.6836786,2.163175 c -0.375857,1.189794 -0.68726398,2.544205 -0.69246398,3.009636 -0.0052,0.4654246 -0.164582,1.1255886 -0.353984,1.4670936 l -0.344165,0.62115 0.2651,1.341521 0.2651,1.34152 -0.307991,1.492932 c -0.340139,1.646783 -0.399183,3.002159 -0.141593,3.259749 0.300407,0.300413 1.14969498,-0.345227 1.85414958,-1.409733 l 0.690397,-1.043347 0.211873,-2.10013 c 0.116446,-1.155095 0.356851,-2.371566 0.534335,-2.703194 0.523499,-0.978171 1.033746,-3.1827576 1.037146,-4.4813806 l 0.0031,-1.207678 0.926042,-0.441317 c 1.12005,-0.534112 1.158524,-0.922533 0.183968,-1.856217 l -0.742074,-0.710551 h -0.674377 z"
    style="fill:#fff" id="path1" />
</svg>